<svg width="24" height="24" viewBox="0 0 24 24" fill="none" xmlns="http://www.w3.org/2000/svg">
<g clip-path="url(#clip0_1635_1169)">
<path fill-rule="evenodd" clip-rule="evenodd" d="M12.5298 16.2811C12.3892 16.4213 12.1986 16.5 11.9998 16.5C11.8011 16.5 11.6105 16.4213 11.4698 16.2811L3.96985 8.79611C3.83737 8.65422 3.76524 8.46655 3.76867 8.27264C3.7721 8.07872 3.85081 7.89371 3.98822 7.75657C4.12564 7.61943 4.31102 7.54088 4.50532 7.53746C4.69963 7.53404 4.88767 7.60602 5.02985 7.73823L11.9998 14.6943L18.9698 7.73823C19.0385 7.66469 19.1213 7.60571 19.2133 7.5648C19.3053 7.52389 19.4046 7.50189 19.5053 7.50012C19.606 7.49834 19.7061 7.51683 19.7994 7.55448C19.8928 7.59212 19.9777 7.64815 20.0489 7.71923C20.1201 7.79031 20.1762 7.87497 20.214 7.96817C20.2517 8.06137 20.2702 8.1612 20.2684 8.2617C20.2667 8.3622 20.2446 8.46132 20.2036 8.55313C20.1626 8.64495 20.1035 8.72758 20.0298 8.79611L12.5298 16.2811Z" fill="#55778A"/>
</g>
<defs>
<clipPath id="clip0_1635_1169">
<rect width="24" height="24" fill="white"/>
</clipPath>
</defs>
</svg>
