<svg width="24" height="24" viewBox="0 0 24 24" fill="none" xmlns="http://www.w3.org/2000/svg">
<g clip-path="url(#clip0_2291_4584)">
<path fill-rule="evenodd" clip-rule="evenodd" d="M5.2197 5.23871C5.36055 5.09826 5.55148 5.01937 5.75056 5.01937C5.94963 5.01937 6.14056 5.09826 6.28142 5.23871L11.7603 10.7087L17.2392 5.23871C17.308 5.16502 17.3909 5.10592 17.483 5.06493C17.5752 5.02394 17.6747 5.00189 17.7755 5.00012C17.8764 4.99834 17.9766 5.01686 18.0701 5.05459C18.1637 5.09231 18.2486 5.14845 18.32 5.21967C18.3913 5.29089 18.4475 5.37572 18.4853 5.46911C18.5231 5.5625 18.5417 5.66253 18.5399 5.76323C18.5381 5.86393 18.516 5.96325 18.475 6.05525C18.4339 6.14725 18.3747 6.23005 18.3009 6.29871L12.822 11.7687L18.3009 17.2387C18.3747 17.3074 18.4339 17.3902 18.475 17.4822C18.516 17.5742 18.5381 17.6735 18.5399 17.7742C18.5417 17.8749 18.5231 17.9749 18.4853 18.0683C18.4475 18.1617 18.3913 18.2465 18.32 18.3177C18.2486 18.389 18.1637 18.4451 18.0701 18.4828C17.9766 18.5206 17.8764 18.5391 17.7755 18.5373C17.6747 18.5355 17.5752 18.5135 17.483 18.4725C17.3909 18.4315 17.308 18.3724 17.2392 18.2987L11.7603 12.8287L6.28142 18.2987C6.13901 18.4312 5.95066 18.5033 5.75604 18.4999C5.56143 18.4965 5.37574 18.4177 5.2381 18.2803C5.10047 18.1429 5.02163 17.9575 5.01819 17.7632C5.01476 17.5689 5.087 17.3809 5.2197 17.2387L10.6986 11.7687L5.2197 6.29871C5.07902 6.15808 5 5.96746 5 5.76871C5 5.56996 5.07902 5.37933 5.2197 5.23871Z" fill="#55778A"/>
</g>
<defs>
<clipPath id="clip0_2291_4584">
<rect width="24" height="24" fill="white"/>
</clipPath>
</defs>
</svg>
