<svg width="40" height="40" viewBox="0 0 40 40" fill="none" xmlns="http://www.w3.org/2000/svg">
<path d="M10 34.125V6H14.1406V17.875C14.7917 16.7552 15.6901 15.8828 16.8359 15.2578C18.0078 14.6068 19.2969 14.2812 20.7031 14.2812C23.0208 14.2812 24.8437 15.0104 26.1719 16.4687C27.5 17.9271 28.1641 20.1016 28.1641 22.9922V34.125H24.0625V23.4219C24.0625 19.6719 22.5651 17.7969 19.5703 17.7969C18.0078 17.7969 16.7057 18.3437 15.6641 19.4375C14.6484 20.5312 14.1406 22.0937 14.1406 24.125V34.125H10Z" fill="#0B3954"/>
<path d="M27.3437 11.1953C26.5625 11.1953 25.9115 10.9479 25.3906 10.4531C24.8958 9.93229 24.6484 9.32031 24.6484 8.61719C24.6484 7.88802 24.8958 7.27604 25.3906 6.78125C25.9115 6.26042 26.5625 6 27.3437 6C28.125 6 28.763 6.26042 29.2578 6.78125C29.7526 7.27604 30 7.88802 30 8.61719C30 9.32031 29.7526 9.93229 29.2578 10.4531C28.763 10.9479 28.125 11.1953 27.3437 11.1953Z" fill="url(#paint0_linear_2_2574)"/>
<defs>
<linearGradient id="paint0_linear_2_2574" x1="29.0352" y1="6.46208" x2="25.9677" y2="10.8258" gradientUnits="userSpaceOnUse">
<stop stop-color="#F4B965"/>
<stop offset="1" stop-color="#F58C72"/>
</linearGradient>
</defs>
</svg>
