<svg width="197" height="56" viewBox="0 0 197 56" fill="none" xmlns="http://www.w3.org/2000/svg">
<g filter="url(#filter0_d_950_46)">
<rect x="8" y="4" width="181" height="40" rx="12" fill="white" shape-rendering="crispEdges"/>
<path d="M26 32.4751V15.6001H28.4844V22.7251C28.875 22.0532 29.4141 21.5298 30.1016 21.1548C30.8047 20.7642 31.5781 20.5688 32.4219 20.5688C33.8125 20.5688 34.9062 21.0064 35.7031 21.8813C36.5 22.7564 36.8985 24.0611 36.8985 25.7954V32.4751H34.4375V26.0532C34.4375 23.8032 33.5391 22.6782 31.7422 22.6782C30.8047 22.6782 30.0234 23.0063 29.3984 23.6626C28.7891 24.3188 28.4844 25.2563 28.4844 26.4751V32.4751H26Z" fill="#0B3954"/>
<path d="M36.4062 18.7173C35.9375 18.7173 35.5469 18.5688 35.2344 18.272C34.9375 17.9595 34.7891 17.5923 34.7891 17.1704C34.7891 16.7329 34.9375 16.3657 35.2344 16.0688C35.5469 15.7563 35.9375 15.6001 36.4062 15.6001C36.875 15.6001 37.2578 15.7563 37.5547 16.0688C37.8516 16.3657 38 16.7329 38 17.1704C38 17.5923 37.8516 17.9595 37.5547 18.272C37.2578 18.5688 36.875 18.7173 36.4062 18.7173Z" fill="url(#paint0_linear_950_46)"/>
<path d="M49.1449 29V19.5455H52.3395C53.0812 19.5455 53.6875 19.6793 54.1584 19.9471C54.6323 20.2118 54.9832 20.5703 55.2109 21.0227C55.4387 21.4751 55.5526 21.9799 55.5526 22.5369C55.5526 23.094 55.4387 23.6003 55.2109 24.0558C54.9863 24.5112 54.6385 24.8744 54.1676 25.1452C53.6967 25.413 53.0935 25.5469 52.358 25.5469H50.0682V24.5312H52.321C52.8288 24.5312 53.2366 24.4435 53.5444 24.2681C53.8522 24.0927 54.0753 23.8557 54.2138 23.5572C54.3554 23.2556 54.4261 22.9155 54.4261 22.5369C54.4261 22.1584 54.3554 21.8198 54.2138 21.5213C54.0753 21.2228 53.8506 20.9889 53.5398 20.8196C53.2289 20.6473 52.8165 20.5611 52.3026 20.5611H50.2898V29H49.1449ZM60.0536 29.1477C59.4135 29.1477 58.8518 28.9954 58.3686 28.6907C57.8885 28.386 57.513 27.9598 57.2422 27.4119C56.9744 26.8641 56.8406 26.224 56.8406 25.4915C56.8406 24.7528 56.9744 24.1081 57.2422 23.5572C57.513 23.0063 57.8885 22.5785 58.3686 22.2738C58.8518 21.9691 59.4135 21.8168 60.0536 21.8168C60.6938 21.8168 61.2539 21.9691 61.734 22.2738C62.2172 22.5785 62.5927 23.0063 62.8604 23.5572C63.1313 24.1081 63.2667 24.7528 63.2667 25.4915C63.2667 26.224 63.1313 26.8641 62.8604 27.4119C62.5927 27.9598 62.2172 28.386 61.734 28.6907C61.2539 28.9954 60.6938 29.1477 60.0536 29.1477ZM60.0536 28.169C60.5399 28.169 60.94 28.0444 61.2539 27.7951C61.5678 27.5458 61.8002 27.218 61.951 26.8118C62.1018 26.4055 62.1772 25.9654 62.1772 25.4915C62.1772 25.0175 62.1018 24.5759 61.951 24.1665C61.8002 23.7572 61.5678 23.4264 61.2539 23.174C60.94 22.9216 60.5399 22.7955 60.0536 22.7955C59.5674 22.7955 59.1673 22.9216 58.8533 23.174C58.5394 23.4264 58.3071 23.7572 58.1562 24.1665C58.0054 24.5759 57.93 25.0175 57.93 25.4915C57.93 25.9654 58.0054 26.4055 58.1562 26.8118C58.3071 27.218 58.5394 27.5458 58.8533 27.7951C59.1673 28.0444 59.5674 28.169 60.0536 28.169ZM66.2951 29L64.1346 21.9091H65.2795L66.8121 27.3381H66.886L68.4002 21.9091H69.5636L71.0593 27.3196H71.1332L72.6658 21.9091H73.8107L71.6502 29H70.5792L69.0281 23.5526H68.9173L67.3661 29H66.2951ZM77.9829 29.1477C77.2996 29.1477 76.7103 28.9969 76.2148 28.6953C75.7223 28.3906 75.3422 27.9659 75.0745 27.4212C74.8098 26.8733 74.6775 26.2363 74.6775 25.5099C74.6775 24.7836 74.8098 24.1435 75.0745 23.5895C75.3422 23.0324 75.7146 22.5985 76.1917 22.2876C76.6718 21.9737 77.2319 21.8168 77.8721 21.8168C78.2414 21.8168 78.6061 21.8783 78.9662 22.0014C79.3263 22.1245 79.654 22.3246 79.9495 22.6016C80.2449 22.8755 80.4804 23.2386 80.6558 23.6911C80.8312 24.1435 80.9189 24.7005 80.9189 25.3622V25.8239H75.453V24.8821H79.811C79.811 24.482 79.731 24.125 79.5709 23.8111C79.414 23.4972 79.1893 23.2494 78.8969 23.0678C78.6076 22.8862 78.266 22.7955 77.8721 22.7955C77.4381 22.7955 77.0626 22.9032 76.7456 23.1186C76.4317 23.331 76.1901 23.608 76.0209 23.9496C75.8516 24.2912 75.767 24.6574 75.767 25.0483V25.6761C75.767 26.2116 75.8593 26.6656 76.0439 27.038C76.2317 27.4073 76.4917 27.6889 76.8241 27.8828C77.1565 28.0736 77.5428 28.169 77.9829 28.169C78.2691 28.169 78.5276 28.129 78.7584 28.049C78.9923 27.9659 79.1939 27.8428 79.3632 27.6797C79.5325 27.5135 79.6633 27.3073 79.7556 27.0611L80.8082 27.3565C80.6974 27.7135 80.5112 28.0275 80.2496 28.2983C79.988 28.5661 79.6648 28.7753 79.2801 28.9261C78.8954 29.0739 78.463 29.1477 77.9829 29.1477ZM82.5763 29V21.9091H83.6288V22.9801H83.7027C83.8319 22.6293 84.0658 22.3446 84.4044 22.1261C84.7429 21.9076 85.1246 21.7983 85.5493 21.7983C85.6293 21.7983 85.7293 21.7998 85.8493 21.8029C85.9694 21.806 86.0602 21.8106 86.1217 21.8168V22.9247C86.0848 22.9155 86.0001 22.9016 85.8678 22.8832C85.7385 22.8616 85.6016 22.8509 85.4569 22.8509C85.1122 22.8509 84.8045 22.9232 84.5336 23.0678C84.2659 23.2094 84.0535 23.4064 83.8966 23.6587C83.7427 23.908 83.6657 24.1927 83.6657 24.5128V29H82.5763ZM90.1704 29.1477C89.4871 29.1477 88.8978 28.9969 88.4023 28.6953C87.9098 28.3906 87.5297 27.9659 87.262 27.4212C86.9973 26.8733 86.865 26.2363 86.865 25.5099C86.865 24.7836 86.9973 24.1435 87.262 23.5895C87.5297 23.0324 87.9021 22.5985 88.3792 22.2876C88.8593 21.9737 89.4194 21.8168 90.0596 21.8168C90.4289 21.8168 90.7936 21.8783 91.1537 22.0014C91.5138 22.1245 91.8415 22.3246 92.137 22.6016C92.4324 22.8755 92.6679 23.2386 92.8433 23.6911C93.0187 24.1435 93.1064 24.7005 93.1064 25.3622V25.8239H87.6405V24.8821H91.9985C91.9985 24.482 91.9185 24.125 91.7584 23.8111C91.6015 23.4972 91.3768 23.2494 91.0844 23.0678C90.7951 22.8862 90.4535 22.7955 90.0596 22.7955C89.6256 22.7955 89.2501 22.9032 88.9331 23.1186C88.6192 23.331 88.3776 23.608 88.2084 23.9496C88.0391 24.2912 87.9545 24.6574 87.9545 25.0483V25.6761C87.9545 26.2116 88.0468 26.6656 88.2314 27.038C88.4192 27.4073 88.6792 27.6889 89.0116 27.8828C89.344 28.0736 89.7303 28.169 90.1704 28.169C90.4566 28.169 90.7151 28.129 90.9459 28.049C91.1798 27.9659 91.3814 27.8428 91.5507 27.6797C91.72 27.5135 91.8508 27.3073 91.9431 27.0611L92.9957 27.3565C92.8849 27.7135 92.6987 28.0275 92.4371 28.2983C92.1755 28.5661 91.8523 28.7753 91.4676 28.9261C91.0829 29.0739 90.6505 29.1477 90.1704 29.1477ZM97.4413 29.1477C96.8504 29.1477 96.3287 28.9985 95.8763 28.6999C95.4239 28.3983 95.07 27.9736 94.8145 27.4258C94.5591 26.8749 94.4314 26.224 94.4314 25.473C94.4314 24.7282 94.5591 24.0819 94.8145 23.5341C95.07 22.9863 95.4255 22.5631 95.8809 22.2646C96.3364 21.966 96.8627 21.8168 97.4598 21.8168C97.9214 21.8168 98.2861 21.8937 98.5539 22.0476C98.8247 22.1984 99.0309 22.3707 99.1725 22.5646C99.3171 22.7554 99.4295 22.9124 99.5095 23.0355H99.6018V19.5455H100.691V29H99.6388V27.9105H99.5095C99.4295 28.0398 99.3156 28.2029 99.1679 28.3999C99.0202 28.5937 98.8093 28.7676 98.5354 28.9215C98.2615 29.0723 97.8968 29.1477 97.4413 29.1477ZM97.589 28.169C98.0261 28.169 98.3954 28.0552 98.697 27.8274C98.9986 27.5966 99.2279 27.2781 99.3849 26.8718C99.5418 26.4625 99.6203 25.9901 99.6203 25.4545C99.6203 24.9252 99.5434 24.462 99.3895 24.065C99.2356 23.6649 99.0078 23.354 98.7062 23.1325C98.4046 22.9078 98.0322 22.7955 97.589 22.7955C97.1274 22.7955 96.7427 22.9139 96.4349 23.1509C96.1302 23.3848 95.901 23.7034 95.7471 24.1065C95.5963 24.5066 95.5209 24.956 95.5209 25.4545C95.5209 25.9593 95.5978 26.4179 95.7517 26.8303C95.9086 27.2396 96.1395 27.5658 96.4442 27.8089C96.7519 28.049 97.1336 28.169 97.589 28.169ZM106.642 29V19.5455H107.731V23.0355H107.824C107.904 22.9124 108.015 22.7554 108.156 22.5646C108.301 22.3707 108.507 22.1984 108.775 22.0476C109.046 21.8937 109.412 21.8168 109.873 21.8168C110.471 21.8168 110.997 21.966 111.452 22.2646C111.908 22.5631 112.263 22.9863 112.519 23.5341C112.774 24.0819 112.902 24.7282 112.902 25.473C112.902 26.224 112.774 26.8749 112.519 27.4258C112.263 27.9736 111.909 28.3983 111.457 28.6999C111.005 28.9985 110.483 29.1477 109.892 29.1477C109.436 29.1477 109.072 29.0723 108.798 28.9215C108.524 28.7676 108.313 28.5937 108.165 28.3999C108.018 28.2029 107.904 28.0398 107.824 27.9105H107.695V29H106.642ZM107.713 25.4545C107.713 25.9901 107.791 26.4625 107.948 26.8718C108.105 27.2781 108.335 27.5966 108.636 27.8274C108.938 28.0552 109.307 28.169 109.744 28.169C110.2 28.169 110.58 28.049 110.884 27.8089C111.192 27.5658 111.423 27.2396 111.577 26.8303C111.734 26.4179 111.812 25.9593 111.812 25.4545C111.812 24.956 111.735 24.5066 111.582 24.1065C111.431 23.7034 111.201 23.3848 110.894 23.1509C110.589 22.9139 110.206 22.7955 109.744 22.7955C109.301 22.7955 108.929 22.9078 108.627 23.1325C108.325 23.354 108.098 23.6649 107.944 24.065C107.79 24.462 107.713 24.9252 107.713 25.4545ZM115.016 31.6591C114.832 31.6591 114.667 31.6437 114.522 31.6129C114.378 31.5852 114.278 31.5575 114.222 31.5298L114.499 30.5696C114.764 30.6373 114.998 30.6619 115.201 30.6435C115.404 30.625 115.584 30.5342 115.741 30.3711C115.901 30.2111 116.047 29.951 116.18 29.5909L116.383 29.0369L113.761 21.9091H114.942L116.9 27.5597H116.974L118.931 21.9091H120.113L117.103 30.0341C116.967 30.4003 116.8 30.7035 116.6 30.9435C116.4 31.1867 116.167 31.3667 115.903 31.4837C115.641 31.6006 115.346 31.6591 115.016 31.6591ZM125.032 29V19.5455H127.031V23.4464H131.089V19.5455H133.083V29H131.089V25.0945H127.031V29H125.032ZM137.926 29.1385C137.196 29.1385 136.568 28.9908 136.042 28.6953C135.519 28.3968 135.116 27.9751 134.832 27.4304C134.549 26.8826 134.408 26.2347 134.408 25.4869C134.408 24.7575 134.549 24.1173 134.832 23.5664C135.116 23.0155 135.514 22.5862 136.028 22.2784C136.545 21.9706 137.151 21.8168 137.847 21.8168C138.315 21.8168 138.75 21.8922 139.153 22.043C139.56 22.1907 139.914 22.4138 140.215 22.7124C140.52 23.0109 140.757 23.3864 140.926 23.8388C141.095 24.2881 141.18 24.8144 141.18 25.4176V25.9577H135.193V24.739H139.329C139.329 24.4558 139.267 24.205 139.144 23.9865C139.021 23.768 138.85 23.5972 138.632 23.4741C138.416 23.3479 138.166 23.2848 137.879 23.2848C137.581 23.2848 137.316 23.354 137.085 23.4925C136.858 23.628 136.679 23.8111 136.55 24.0419C136.421 24.2696 136.354 24.5236 136.351 24.8036V25.9624C136.351 26.3132 136.416 26.6164 136.545 26.8718C136.678 27.1272 136.864 27.3242 137.104 27.4627C137.344 27.6012 137.629 27.6705 137.958 27.6705C138.176 27.6705 138.376 27.6397 138.558 27.5781C138.74 27.5166 138.895 27.4242 139.024 27.3011C139.153 27.178 139.252 27.0272 139.32 26.8487L141.139 26.9688C141.046 27.4058 140.857 27.7874 140.571 28.1136C140.288 28.4368 139.921 28.6892 139.472 28.8707C139.026 29.0492 138.51 29.1385 137.926 29.1385ZM144.486 29.1339C144.033 29.1339 143.63 29.0554 143.276 28.8984C142.922 28.7384 142.642 28.503 142.436 28.1921C142.233 27.8782 142.131 27.4873 142.131 27.0195C142.131 26.6256 142.203 26.2947 142.348 26.027C142.493 25.7592 142.69 25.5438 142.939 25.3807C143.188 25.2176 143.471 25.0945 143.788 25.0114C144.109 24.9283 144.444 24.8698 144.795 24.8359C145.207 24.7929 145.54 24.7528 145.792 24.7159C146.044 24.6759 146.227 24.6174 146.341 24.5405C146.455 24.4635 146.512 24.3497 146.512 24.1989V24.1712C146.512 23.8788 146.42 23.6526 146.235 23.4925C146.054 23.3325 145.795 23.2525 145.46 23.2525C145.106 23.2525 144.824 23.331 144.615 23.4879C144.406 23.6418 144.267 23.8357 144.199 24.0696L142.38 23.9219C142.473 23.491 142.654 23.1186 142.925 22.8047C143.196 22.4877 143.545 22.2446 143.973 22.0753C144.404 21.9029 144.903 21.8168 145.469 21.8168C145.863 21.8168 146.24 21.8629 146.6 21.9553C146.963 22.0476 147.285 22.1907 147.565 22.3846C147.848 22.5785 148.071 22.8278 148.234 23.1325C148.397 23.4341 148.479 23.7957 148.479 24.2173V29H146.614V28.0167H146.558C146.444 28.2383 146.292 28.4337 146.101 28.603C145.91 28.7692 145.681 28.9 145.413 28.9954C145.146 29.0877 144.836 29.1339 144.486 29.1339ZM145.049 27.7766C145.338 27.7766 145.593 27.7197 145.815 27.6058C146.037 27.4889 146.211 27.3319 146.337 27.1349C146.463 26.938 146.526 26.7148 146.526 26.4656V25.7131C146.464 25.7531 146.38 25.79 146.272 25.8239C146.167 25.8546 146.049 25.8839 145.917 25.9116C145.784 25.9362 145.652 25.9593 145.52 25.9808C145.387 25.9993 145.267 26.0162 145.16 26.0316C144.929 26.0655 144.727 26.1193 144.555 26.1932C144.382 26.267 144.249 26.3671 144.153 26.4933C144.058 26.6164 144.01 26.7702 144.01 26.9549C144.01 27.2227 144.107 27.4273 144.301 27.5689C144.498 27.7074 144.747 27.7766 145.049 27.7766ZM151.971 19.5455V29H150.005V19.5455H151.971ZM154.696 29.12C154.391 29.12 154.13 29.0123 153.911 28.7969C153.696 28.5784 153.588 28.3168 153.588 28.0121C153.588 27.7105 153.696 27.4519 153.911 27.2365C154.13 27.0211 154.391 26.9134 154.696 26.9134C154.991 26.9134 155.25 27.0211 155.472 27.2365C155.693 27.4519 155.804 27.7105 155.804 28.0121C155.804 28.2152 155.752 28.4014 155.647 28.5707C155.545 28.7369 155.412 28.8707 155.245 28.9723C155.079 29.0708 154.896 29.12 154.696 29.12ZM157.419 29V21.9091H159.293V23.1602H159.376C159.524 22.7447 159.77 22.4169 160.115 22.1768C160.459 21.9368 160.872 21.8168 161.352 21.8168C161.838 21.8168 162.252 21.9383 162.594 22.1815C162.935 22.4215 163.163 22.7478 163.277 23.1602H163.351C163.495 22.7539 163.757 22.4292 164.136 22.1861C164.517 21.9399 164.968 21.8168 165.488 21.8168C166.15 21.8168 166.687 22.0276 167.099 22.4492C167.515 22.8678 167.723 23.4618 167.723 24.2312V29H165.761V24.619C165.761 24.225 165.656 23.9296 165.447 23.7326C165.237 23.5356 164.976 23.4371 164.662 23.4371C164.305 23.4371 164.026 23.551 163.826 23.7788C163.626 24.0034 163.526 24.3004 163.526 24.6697V29H161.62V24.5774C161.62 24.2296 161.52 23.9527 161.32 23.7464C161.123 23.5402 160.862 23.4371 160.539 23.4371C160.321 23.4371 160.124 23.4925 159.948 23.6033C159.776 23.7111 159.639 23.8634 159.538 24.0604C159.436 24.2543 159.385 24.482 159.385 24.7436V29H157.419ZM172.508 29.1385C171.778 29.1385 171.15 28.9908 170.624 28.6953C170.101 28.3968 169.698 27.9751 169.415 27.4304C169.131 26.8826 168.99 26.2347 168.99 25.4869C168.99 24.7575 169.131 24.1173 169.415 23.5664C169.698 23.0155 170.096 22.5862 170.61 22.2784C171.127 21.9706 171.734 21.8168 172.429 21.8168C172.897 21.8168 173.332 21.8922 173.736 22.043C174.142 22.1907 174.496 22.4138 174.797 22.7124C175.102 23.0109 175.339 23.3864 175.508 23.8388C175.678 24.2881 175.762 24.8144 175.762 25.4176V25.9577H169.775V24.739H173.911C173.911 24.4558 173.849 24.205 173.726 23.9865C173.603 23.768 173.432 23.5972 173.214 23.4741C172.998 23.3479 172.748 23.2848 172.461 23.2848C172.163 23.2848 171.898 23.354 171.667 23.4925C171.44 23.628 171.261 23.8111 171.132 24.0419C171.003 24.2696 170.936 24.5236 170.933 24.8036V25.9624C170.933 26.3132 170.998 26.6164 171.127 26.8718C171.26 27.1272 171.446 27.3242 171.686 27.4627C171.926 27.6012 172.211 27.6705 172.54 27.6705C172.758 27.6705 172.958 27.6397 173.14 27.5781C173.322 27.5166 173.477 27.4242 173.606 27.3011C173.736 27.178 173.834 27.0272 173.902 26.8487L175.721 26.9688C175.628 27.4058 175.439 27.7874 175.153 28.1136C174.87 28.4368 174.503 28.6892 174.054 28.8707C173.608 29.0492 173.092 29.1385 172.508 29.1385Z" fill="#0B3954"/>
<rect x="8.5" y="4.5" width="180" height="39" rx="11.5" stroke="#C8D6DF" shape-rendering="crispEdges"/>
</g>
<defs>
<filter id="filter0_d_950_46" x="0" y="0" width="197" height="56" filterUnits="userSpaceOnUse" color-interpolation-filters="sRGB">
<feFlood flood-opacity="0" result="BackgroundImageFix"/>
<feColorMatrix in="SourceAlpha" type="matrix" values="0 0 0 0 0 0 0 0 0 0 0 0 0 0 0 0 0 0 127 0" result="hardAlpha"/>
<feOffset dy="4"/>
<feGaussianBlur stdDeviation="4"/>
<feComposite in2="hardAlpha" operator="out"/>
<feColorMatrix type="matrix" values="0 0 0 0 0.129412 0 0 0 0 0.145098 0 0 0 0 0.160784 0 0 0 0.04 0"/>
<feBlend mode="normal" in2="BackgroundImageFix" result="effect1_dropShadow_950_46"/>
<feBlend mode="normal" in="SourceGraphic" in2="effect1_dropShadow_950_46" result="shape"/>
</filter>
<linearGradient id="paint0_linear_950_46" x1="37.4211" y1="15.8773" x2="35.5806" y2="18.4956" gradientUnits="userSpaceOnUse">
<stop stop-color="#F4B965"/>
<stop offset="1" stop-color="#F58C72"/>
</linearGradient>
</defs>
</svg>
