<svg width="24" height="24" viewBox="0 0 24 24" fill="none" xmlns="http://www.w3.org/2000/svg">
<path d="M10.975 12.95L9 10.975C8.85 10.825 8.66667 10.75 8.45 10.75C8.23333 10.75 8.05 10.825 7.9 10.975C7.75 11.125 7.675 11.3083 7.675 11.525C7.675 11.7417 7.75 11.925 7.9 12.075L10.375 14.575C10.525 14.725 10.7 14.8 10.9 14.8C11.1 14.8 11.275 14.725 11.425 14.575L16.075 9.92501C16.225 9.77501 16.3 9.59585 16.3 9.38751C16.3 9.17918 16.225 9.00835 16.075 8.87501C15.9417 8.74168 15.7667 8.67918 15.55 8.68751C15.3333 8.69585 15.1583 8.76668 15.025 8.90001L10.975 12.95ZM12 21.9C11.9167 21.9 11.8375 21.8917 11.7625 21.875C11.6875 21.8583 11.6083 21.8333 11.525 21.8C9.20833 21.0167 7.375 19.6125 6.025 17.5875C4.675 15.5625 4 13.3417 4 10.925V6.02501C4 5.70835 4.09167 5.42085 4.275 5.16251C4.45833 4.90418 4.69167 4.71668 4.975 4.60001L11.475 2.17501C11.6583 2.10835 11.8333 2.07501 12 2.07501C12.1667 2.07501 12.3417 2.10835 12.525 2.17501L19.025 4.60001C19.3083 4.71668 19.5417 4.90418 19.725 5.16251C19.9083 5.42085 20 5.70835 20 6.02501V10.925C20 13.3417 19.325 15.5625 17.975 17.5875C16.625 19.6125 14.7917 21.0167 12.475 21.8C12.3917 21.8333 12.3125 21.8583 12.2375 21.875C12.1625 21.8917 12.0833 21.9 12 21.9Z" fill="#26C4A8"/>
</svg>
