<svg width="170" height="40" viewBox="0 0 170 40" fill="none" xmlns="http://www.w3.org/2000/svg">
<rect x="0.5" y="0.5" width="169" height="39" rx="11.5" fill="white" stroke="#C8D6DF"/>
<path d="M14 28.475V11.6H16.4844V18.725C16.875 18.0531 17.4141 17.5297 18.1016 17.1547C18.8047 16.764 19.5781 16.5687 20.4219 16.5687C21.8125 16.5687 22.9062 17.0062 23.7031 17.8812C24.5 18.7562 24.8985 20.0609 24.8985 21.7953V28.475H22.4375V22.0531C22.4375 19.8031 21.5391 18.6781 19.7422 18.6781C18.8047 18.6781 18.0234 19.0062 17.3984 19.6625C16.7891 20.3187 16.4844 21.2562 16.4844 22.475V28.475H14Z" fill="#0B3954"/>
<path d="M24.4062 14.717C23.9375 14.717 23.5469 14.5686 23.2344 14.2717C22.9375 13.9592 22.7891 13.592 22.7891 13.1702C22.7891 12.7327 22.9375 12.3655 23.2344 12.0686C23.5469 11.7561 23.9375 11.5999 24.4062 11.5999C24.875 11.5999 25.2578 11.7561 25.5547 12.0686C25.8516 12.3655 26 12.7327 26 13.1702C26 13.592 25.8516 13.9592 25.5547 14.2717C25.2578 14.5686 24.875 14.717 24.4062 14.717Z" fill="url(#paint0_linear_1033_236)"/>
<path d="M37.5327 15.5455L40.3395 23.5043H40.4503L43.2571 15.5455H44.4574L40.9858 25H39.804L36.3324 15.5455H37.5327ZM48.0952 25.1477C47.4119 25.1477 46.8226 24.9969 46.3271 24.6953C45.8346 24.3906 45.4545 23.9659 45.1868 23.4212C44.9221 22.8733 44.7898 22.2363 44.7898 21.5099C44.7898 20.7836 44.9221 20.1435 45.1868 19.5895C45.4545 19.0324 45.8269 18.5985 46.304 18.2876C46.7841 17.9737 47.3442 17.8168 47.9844 17.8168C48.3537 17.8168 48.7184 17.8783 49.0785 18.0014C49.4386 18.1245 49.7663 18.3246 50.0618 18.6016C50.3572 18.8755 50.5927 19.2386 50.7681 19.6911C50.9435 20.1435 51.0312 20.7005 51.0312 21.3622V21.8239H45.5653V20.8821H49.9233C49.9233 20.482 49.8433 20.125 49.6832 19.8111C49.5263 19.4972 49.3016 19.2494 49.0092 19.0678C48.7199 18.8862 48.3783 18.7955 47.9844 18.7955C47.5504 18.7955 47.175 18.9032 46.858 19.1186C46.544 19.331 46.3024 19.608 46.1332 19.9496C45.9639 20.2912 45.8793 20.6574 45.8793 21.0483V21.6761C45.8793 22.2116 45.9716 22.6656 46.1562 23.038C46.344 23.4073 46.604 23.6889 46.9364 23.8828C47.2688 24.0736 47.6551 24.169 48.0952 24.169C48.3814 24.169 48.6399 24.129 48.8707 24.049C49.1046 23.9659 49.3062 23.8428 49.4755 23.6797C49.6448 23.5135 49.7756 23.3073 49.8679 23.0611L50.9205 23.3565C50.8097 23.7135 50.6235 24.0275 50.3619 24.2983C50.1003 24.5661 49.7771 24.7753 49.3924 24.9261C49.0077 25.0739 48.5753 25.1477 48.0952 25.1477ZM52.6886 25V17.9091H53.7411V18.9801H53.815C53.9442 18.6293 54.1781 18.3446 54.5167 18.1261C54.8552 17.9076 55.2369 17.7983 55.6616 17.7983C55.7416 17.7983 55.8416 17.7998 55.9616 17.8029C56.0817 17.806 56.1725 17.8106 56.234 17.8168V18.9247C56.1971 18.9155 56.1125 18.9016 55.9801 18.8832C55.8509 18.8616 55.7139 18.8509 55.5692 18.8509C55.2246 18.8509 54.9168 18.9232 54.646 19.0678C54.3782 19.2094 54.1658 19.4064 54.0089 19.6587C53.855 19.908 53.7781 20.1927 53.7781 20.5128V25H52.6886ZM57.5255 25V17.9091H58.615V25H57.5255ZM58.0795 16.7273C57.8671 16.7273 57.684 16.6549 57.5301 16.5103C57.3793 16.3656 57.3039 16.1918 57.3039 15.9886C57.3039 15.7855 57.3793 15.6116 57.5301 15.467C57.684 15.3223 57.8671 15.25 58.0795 15.25C58.2918 15.25 58.4734 15.3223 58.6242 15.467C58.7781 15.6116 58.855 15.7855 58.855 15.9886C58.855 16.1918 58.7781 16.3656 58.6242 16.5103C58.4734 16.6549 58.2918 16.7273 58.0795 16.7273ZM63.7681 17.9091V18.8324H59.9457V17.9091H63.7681ZM61.0906 25V16.9304C61.0906 16.5241 61.186 16.1856 61.3768 15.9148C61.5676 15.6439 61.8153 15.4408 62.12 15.3054C62.4247 15.17 62.7463 15.1023 63.0849 15.1023C63.3526 15.1023 63.5711 15.1238 63.7404 15.1669C63.9097 15.21 64.0359 15.25 64.119 15.2869L63.805 16.2287C63.7496 16.2102 63.6727 16.1871 63.5742 16.1594C63.4788 16.1317 63.3526 16.1179 63.1957 16.1179C62.8356 16.1179 62.5755 16.2087 62.4155 16.3903C62.2585 16.5719 62.18 16.8381 62.18 17.1889V25H61.0906ZM65.295 25V17.9091H66.3845V25H65.295ZM65.849 16.7273C65.6366 16.7273 65.4535 16.6549 65.2996 16.5103C65.1488 16.3656 65.0734 16.1918 65.0734 15.9886C65.0734 15.7855 65.1488 15.6116 65.2996 15.467C65.4535 15.3223 65.6366 15.25 65.849 15.25C66.0613 15.25 66.2429 15.3223 66.3937 15.467C66.5476 15.6116 66.6246 15.7855 66.6246 15.9886C66.6246 16.1918 66.5476 16.3656 66.3937 16.5103C66.2429 16.6549 66.0613 16.7273 65.849 16.7273ZM71.353 25.1477C70.6697 25.1477 70.0804 24.9969 69.5849 24.6953C69.0924 24.3906 68.7124 23.9659 68.4446 23.4212C68.1799 22.8733 68.0476 22.2363 68.0476 21.5099C68.0476 20.7836 68.1799 20.1435 68.4446 19.5895C68.7124 19.0324 69.0848 18.5985 69.5618 18.2876C70.0419 17.9737 70.602 17.8168 71.2422 17.8168C71.6115 17.8168 71.9762 17.8783 72.3363 18.0014C72.6964 18.1245 73.0241 18.3246 73.3196 18.6016C73.6151 18.8755 73.8505 19.2386 74.0259 19.6911C74.2013 20.1435 74.2891 20.7005 74.2891 21.3622V21.8239H68.8232V20.8821H73.1811C73.1811 20.482 73.1011 20.125 72.9411 19.8111C72.7841 19.4972 72.5594 19.2494 72.267 19.0678C71.9777 18.8862 71.6361 18.7955 71.2422 18.7955C70.8082 18.7955 70.4328 18.9032 70.1158 19.1186C69.8018 19.331 69.5603 19.608 69.391 19.9496C69.2217 20.2912 69.1371 20.6574 69.1371 21.0483V21.6761C69.1371 22.2116 69.2294 22.6656 69.4141 23.038C69.6018 23.4073 69.8619 23.6889 70.1942 23.8828C70.5266 24.0736 70.9129 24.169 71.353 24.169C71.6392 24.169 71.8977 24.129 72.1286 24.049C72.3625 23.9659 72.564 23.8428 72.7333 23.6797C72.9026 23.5135 73.0334 23.3073 73.1257 23.0611L74.1783 23.3565C74.0675 23.7135 73.8813 24.0275 73.6197 24.2983C73.3581 24.5661 73.0349 24.7753 72.6502 24.9261C72.2655 25.0739 71.8331 25.1477 71.353 25.1477ZM78.6239 25.1477C78.033 25.1477 77.5114 24.9985 77.0589 24.6999C76.6065 24.3983 76.2526 23.9736 75.9972 23.4258C75.7417 22.8749 75.614 22.224 75.614 21.473C75.614 20.7282 75.7417 20.0819 75.9972 19.5341C76.2526 18.9863 76.6081 18.5631 77.0636 18.2646C77.5191 17.966 78.0453 17.8168 78.6424 17.8168C79.104 17.8168 79.4688 17.8937 79.7365 18.0476C80.0073 18.1984 80.2135 18.3707 80.3551 18.5646C80.4998 18.7554 80.6121 18.9124 80.6921 19.0355H80.7844V15.5455H81.8739V25H80.8214V23.9105H80.6921C80.6121 24.0398 80.4982 24.2029 80.3505 24.3999C80.2028 24.5937 79.992 24.7676 79.718 24.9215C79.4441 25.0723 79.0794 25.1477 78.6239 25.1477ZM78.7717 24.169C79.2087 24.169 79.578 24.0552 79.8796 23.8274C80.1812 23.5966 80.4105 23.2781 80.5675 22.8718C80.7244 22.4625 80.8029 21.9901 80.8029 21.4545C80.8029 20.9252 80.726 20.462 80.5721 20.065C80.4182 19.6649 80.1905 19.354 79.8888 19.1325C79.5872 18.9078 79.2148 18.7955 78.7717 18.7955C78.31 18.7955 77.9253 18.9139 77.6175 19.1509C77.3129 19.3848 77.0836 19.7034 76.9297 20.1065C76.7789 20.5066 76.7035 20.956 76.7035 21.4545C76.7035 21.9593 76.7804 22.4179 76.9343 22.8303C77.0913 23.2396 77.3221 23.5658 77.6268 23.8089C77.9345 24.049 78.3162 24.169 78.7717 24.169ZM87.8246 25V15.5455H88.9141V19.0355H89.0064C89.0864 18.9124 89.1972 18.7554 89.3388 18.5646C89.4834 18.3707 89.6896 18.1984 89.9574 18.0476C90.2282 17.8937 90.5945 17.8168 91.0561 17.8168C91.6532 17.8168 92.1795 17.966 92.6349 18.2646C93.0904 18.5631 93.4459 18.9863 93.7013 19.5341C93.9568 20.0819 94.0845 20.7282 94.0845 21.473C94.0845 22.224 93.9568 22.8749 93.7013 23.4258C93.4459 23.9736 93.092 24.3983 92.6396 24.6999C92.1871 24.9985 91.6655 25.1477 91.0746 25.1477C90.6191 25.1477 90.2544 25.0723 89.9805 24.9215C89.7066 24.7676 89.4957 24.5937 89.348 24.3999C89.2003 24.2029 89.0864 24.0398 89.0064 23.9105H88.8771V25H87.8246ZM88.8956 21.4545C88.8956 21.9901 88.9741 22.4625 89.131 22.8718C89.288 23.2781 89.5173 23.5966 89.8189 23.8274C90.1205 24.0552 90.4898 24.169 90.9268 24.169C91.3823 24.169 91.7624 24.049 92.0671 23.8089C92.3749 23.5658 92.6057 23.2396 92.7596 22.8303C92.9165 22.4179 92.995 21.9593 92.995 21.4545C92.995 20.956 92.9181 20.5066 92.7642 20.1065C92.6134 19.7034 92.3841 19.3848 92.0763 19.1509C91.7717 18.9139 91.3885 18.7955 90.9268 18.7955C90.4837 18.7955 90.1113 18.9078 89.8097 19.1325C89.508 19.354 89.2803 19.6649 89.1264 20.065C88.9725 20.462 88.8956 20.9252 88.8956 21.4545ZM96.1989 27.6591C96.0142 27.6591 95.8496 27.6437 95.7049 27.6129C95.5603 27.5852 95.4602 27.5575 95.4048 27.5298L95.6818 26.5696C95.9465 26.6373 96.1804 26.6619 96.3835 26.6435C96.5866 26.625 96.7667 26.5342 96.9237 26.3711C97.0837 26.2111 97.2299 25.951 97.3622 25.5909L97.5653 25.0369L94.9432 17.9091H96.125L98.0824 23.5597H98.1562L100.114 17.9091H101.295L98.2855 26.0341C98.1501 26.4003 97.9824 26.7035 97.7823 26.9435C97.5823 27.1867 97.3499 27.3667 97.0852 27.4837C96.8236 27.6006 96.5282 27.6591 96.1989 27.6591ZM106.214 25V15.5455H108.213V19.4464H112.271V15.5455H114.265V25H112.271V21.0945H108.213V25H106.214ZM119.108 25.1385C118.379 25.1385 117.751 24.9908 117.225 24.6953C116.701 24.3968 116.298 23.9751 116.015 23.4304C115.732 22.8826 115.59 22.2347 115.59 21.4869C115.59 20.7575 115.732 20.1173 116.015 19.5664C116.298 19.0155 116.697 18.5862 117.211 18.2784C117.728 17.9706 118.334 17.8168 119.03 17.8168C119.497 17.8168 119.933 17.8922 120.336 18.043C120.742 18.1907 121.096 18.4138 121.398 18.7124C121.703 19.0109 121.94 19.3864 122.109 19.8388C122.278 20.2881 122.363 20.8144 122.363 21.4176V21.9577H116.375V20.739H120.512C120.512 20.4558 120.45 20.205 120.327 19.9865C120.204 19.768 120.033 19.5972 119.814 19.4741C119.599 19.3479 119.348 19.2848 119.062 19.2848C118.763 19.2848 118.499 19.354 118.268 19.4925C118.04 19.628 117.862 19.8111 117.732 20.0419C117.603 20.2696 117.537 20.5236 117.534 20.8036V21.9624C117.534 22.3132 117.599 22.6164 117.728 22.8718C117.86 23.1272 118.046 23.3242 118.286 23.4627C118.526 23.6012 118.811 23.6705 119.14 23.6705C119.359 23.6705 119.559 23.6397 119.741 23.5781C119.922 23.5166 120.078 23.4242 120.207 23.3011C120.336 23.178 120.435 23.0272 120.502 22.8487L122.321 22.9688C122.229 23.4058 122.04 23.7874 121.753 24.1136C121.47 24.4368 121.104 24.6892 120.655 24.8707C120.208 25.0492 119.693 25.1385 119.108 25.1385ZM125.668 25.1339C125.216 25.1339 124.813 25.0554 124.459 24.8984C124.105 24.7384 123.825 24.503 123.618 24.1921C123.415 23.8782 123.314 23.4873 123.314 23.0195C123.314 22.6256 123.386 22.2947 123.531 22.027C123.675 21.7592 123.872 21.5438 124.122 21.3807C124.371 21.2176 124.654 21.0945 124.971 21.0114C125.291 20.9283 125.627 20.8698 125.977 20.8359C126.39 20.7929 126.722 20.7528 126.975 20.7159C127.227 20.6759 127.41 20.6174 127.524 20.5405C127.638 20.4635 127.695 20.3497 127.695 20.1989V20.1712C127.695 19.8788 127.602 19.6526 127.418 19.4925C127.236 19.3325 126.978 19.2525 126.642 19.2525C126.288 19.2525 126.007 19.331 125.797 19.4879C125.588 19.6418 125.45 19.8357 125.382 20.0696L123.563 19.9219C123.655 19.491 123.837 19.1186 124.108 18.8047C124.379 18.4877 124.728 18.2446 125.156 18.0753C125.587 17.9029 126.085 17.8168 126.651 17.8168C127.045 17.8168 127.422 17.8629 127.782 17.9553C128.146 18.0476 128.467 18.1907 128.747 18.3846C129.03 18.5785 129.254 18.8278 129.417 19.1325C129.58 19.4341 129.661 19.7957 129.661 20.2173V25H127.796V24.0167H127.741C127.627 24.2383 127.475 24.4337 127.284 24.603C127.093 24.7692 126.864 24.9 126.596 24.9954C126.328 25.0877 126.019 25.1339 125.668 25.1339ZM126.231 23.7766C126.521 23.7766 126.776 23.7197 126.998 23.6058C127.219 23.4889 127.393 23.3319 127.519 23.1349C127.646 22.938 127.709 22.7148 127.709 22.4656V21.7131C127.647 21.7531 127.562 21.79 127.455 21.8239C127.35 21.8546 127.232 21.8839 127.099 21.9116C126.967 21.9362 126.835 21.9593 126.702 21.9808C126.57 21.9993 126.45 22.0162 126.342 22.0316C126.111 22.0655 125.91 22.1193 125.737 22.1932C125.565 22.267 125.431 22.3671 125.336 22.4933C125.24 22.6164 125.193 22.7702 125.193 22.9549C125.193 23.2227 125.29 23.4273 125.483 23.5689C125.68 23.7074 125.93 23.7766 126.231 23.7766ZM133.154 15.5455V25H131.187V15.5455H133.154ZM135.879 25.12C135.574 25.12 135.312 25.0123 135.094 24.7969C134.878 24.5784 134.771 24.3168 134.771 24.0121C134.771 23.7105 134.878 23.4519 135.094 23.2365C135.312 23.0211 135.574 22.9134 135.879 22.9134C136.174 22.9134 136.433 23.0211 136.654 23.2365C136.876 23.4519 136.987 23.7105 136.987 24.0121C136.987 24.2152 136.934 24.4014 136.83 24.5707C136.728 24.7369 136.594 24.8707 136.428 24.9723C136.262 25.0708 136.079 25.12 135.879 25.12ZM138.601 25V17.9091H140.475V19.1602H140.559C140.706 18.7447 140.953 18.4169 141.297 18.1768C141.642 17.9368 142.054 17.8168 142.534 17.8168C143.021 17.8168 143.435 17.9383 143.776 18.1815C144.118 18.4215 144.346 18.7478 144.46 19.1602H144.533C144.678 18.7539 144.94 18.4292 145.318 18.1861C145.7 17.9399 146.151 17.8168 146.671 17.8168C147.333 17.8168 147.87 18.0276 148.282 18.4492C148.697 18.8678 148.905 19.4618 148.905 20.2312V25H146.943V20.619C146.943 20.225 146.839 19.9296 146.629 19.7326C146.42 19.5356 146.158 19.4371 145.844 19.4371C145.487 19.4371 145.209 19.551 145.009 19.7788C144.809 20.0034 144.709 20.3004 144.709 20.6697V25H142.802V20.5774C142.802 20.2296 142.702 19.9527 142.502 19.7464C142.305 19.5402 142.045 19.4371 141.722 19.4371C141.503 19.4371 141.306 19.4925 141.131 19.6033C140.959 19.7111 140.822 19.8634 140.72 20.0604C140.619 20.2543 140.568 20.482 140.568 20.7436V25H138.601ZM153.69 25.1385C152.961 25.1385 152.333 24.9908 151.807 24.6953C151.283 24.3968 150.88 23.9751 150.597 23.4304C150.314 22.8826 150.172 22.2347 150.172 21.4869C150.172 20.7575 150.314 20.1173 150.597 19.5664C150.88 19.0155 151.279 18.5862 151.793 18.2784C152.31 17.9706 152.916 17.8168 153.612 17.8168C154.079 17.8168 154.515 17.8922 154.918 18.043C155.324 18.1907 155.678 18.4138 155.98 18.7124C156.285 19.0109 156.522 19.3864 156.691 19.8388C156.86 20.2881 156.945 20.8144 156.945 21.4176V21.9577H150.957V20.739H155.094C155.094 20.4558 155.032 20.205 154.909 19.9865C154.786 19.768 154.615 19.5972 154.396 19.4741C154.181 19.3479 153.93 19.2848 153.644 19.2848C153.345 19.2848 153.081 19.354 152.85 19.4925C152.622 19.628 152.444 19.8111 152.314 20.0419C152.185 20.2696 152.119 20.5236 152.116 20.8036V21.9624C152.116 22.3132 152.181 22.6164 152.31 22.8718C152.442 23.1272 152.628 23.3242 152.868 23.4627C153.108 23.6012 153.393 23.6705 153.722 23.6705C153.941 23.6705 154.141 23.6397 154.323 23.5781C154.504 23.5166 154.66 23.4242 154.789 23.3011C154.918 23.178 155.017 23.0272 155.084 22.8487L156.903 22.9688C156.811 23.4058 156.622 23.7874 156.335 24.1136C156.052 24.4368 155.686 24.6892 155.237 24.8707C154.79 25.0492 154.275 25.1385 153.69 25.1385Z" fill="#212529"/>
<defs>
<linearGradient id="paint0_linear_1033_236" x1="25.4211" y1="11.8771" x2="23.5806" y2="14.4954" gradientUnits="userSpaceOnUse">
<stop stop-color="#F4B965"/>
<stop offset="1" stop-color="#F58C72"/>
</linearGradient>
</defs>
</svg>
